<svg width="91" height="39" viewBox="0 0 91 39" fill="none" xmlns="http://www.w3.org/2000/svg">
<g clip-path="url(#clip0_3_11927)">
<path fill-rule="evenodd" clip-rule="evenodd" d="M0.938983 13.1873L18.3892 5.56749C18.5794 5.48036 18.7856 5.43113 18.9957 5.42269C19.2057 5.41424 19.4154 5.44675 19.6123 5.51831C19.8093 5.58987 19.9896 5.69903 20.1426 5.83939C20.2956 5.97974 20.4183 6.14845 20.5034 6.33561L28.2661 23.4726C28.3531 23.657 28.4017 23.8564 28.4091 24.0592C28.4165 24.2621 28.3825 24.4643 28.3092 24.6543C28.2358 24.8443 28.1245 25.0183 27.9817 25.1661C27.8389 25.314 27.6674 25.4328 27.4772 25.5158L10.0112 33.1587C9.82097 33.2458 9.61478 33.295 9.40473 33.3035C9.19469 33.3119 8.98503 33.2794 8.78807 33.2078C8.59111 33.1363 8.41082 33.0271 8.2578 32.8868C8.10478 32.7464 7.9821 32.5777 7.89698 32.3905L0.142205 15.2613C0.0504499 15.0748 -0.00170582 14.8722 -0.011138 14.6657C-0.0205701 14.4591 0.0129157 14.2528 0.0873137 14.0592C0.161712 13.8655 0.27549 13.6885 0.421833 13.5387C0.568176 13.3889 0.744073 13.2694 0.938983 13.1873Z" fill="#A1D1F5"/>
<path d="M18.5705 25.0933C21.3159 25.0933 23.3906 23.0578 23.3906 19.4937C23.3906 15.9296 21.3395 13.8633 18.5705 13.8633C17.9215 13.8669 17.2823 14.0172 16.7032 14.3025C16.1241 14.5878 15.621 15.0001 15.2335 15.5071V10.0611H12.3462V24.8475H15.2335V23.4572C15.623 23.9615 16.1268 24.3714 16.7056 24.6552C17.2843 24.939 17.9225 25.0889 18.5705 25.0933ZM17.6633 22.5969C17.1921 22.5866 16.7293 22.4735 16.3088 22.2662C15.8883 22.0588 15.5209 21.7624 15.2335 21.3986V17.6118C15.5193 17.2452 15.886 16.9458 16.3066 16.7358C16.7272 16.5257 17.1908 16.4103 17.6633 16.3981C19.3357 16.3981 20.4402 17.6348 20.4402 19.4706C20.4402 21.3065 19.3357 22.5969 17.6633 22.5969ZM30.6642 25.0933C32.2955 25.1449 33.8905 24.6181 35.153 23.6109L33.8907 21.775C33.0857 22.445 32.0698 22.8271 31.0113 22.8581C30.2589 22.9176 29.5117 22.6933 28.9244 22.2315C28.3371 21.7697 27.9545 21.1058 27.8557 20.377H35.9419V19.7625C35.9419 16.2599 33.733 13.8633 30.4827 13.8633C29.7298 13.8546 28.9829 13.9946 28.2872 14.2749C27.5914 14.5551 26.9612 14.9699 26.4347 15.494C25.9082 16.0181 25.4964 16.6408 25.224 17.3242C24.9516 18.0077 24.8244 18.7379 24.8501 19.4706C24.8137 20.2217 24.9394 20.9719 25.2192 21.6727C25.4991 22.3735 25.9268 23.0094 26.4747 23.5392C27.0226 24.0691 27.6785 24.4812 28.4002 24.7489C29.1218 25.0166 29.8931 25.1339 30.6642 25.0933ZM33.165 18.4721H27.8084C27.8569 17.8188 28.1616 17.2087 28.6595 16.7682C29.1574 16.3278 29.8102 16.0907 30.4827 16.1062C30.8192 16.0866 31.1563 16.1325 31.4743 16.2414C31.7924 16.3502 32.0848 16.5198 32.3347 16.7401C32.5845 16.9605 32.7866 17.2272 32.9292 17.5246C33.0718 17.822 33.1519 18.1441 33.165 18.4721ZM39.0501 29.1721C40.9197 29.126 42.3634 28.596 43.1681 26.5835L48.288 14.1322H45.2113L42.3713 21.5753L39.5313 14.1322H36.4546L40.8724 24.9858L40.478 25.8922C40.3413 26.1597 40.1211 26.3781 39.8489 26.5161C39.5768 26.6541 39.2667 26.7046 38.9633 26.6603C38.6546 26.6591 38.349 26.5991 38.064 26.4837L37.638 29.0108C38.1029 29.1045 38.5754 29.1585 39.0501 29.1721ZM54.6149 25.0933C55.3827 25.1284 56.1497 25.0069 56.8666 24.7368C57.5835 24.4666 58.2346 24.0537 58.7781 23.5244C59.3217 22.9951 59.7458 22.3612 60.0233 21.6631C60.3008 20.9651 60.4255 20.2183 60.3895 19.4706C60.3895 17.9835 59.7828 16.5572 58.7028 15.5057C57.6228 14.4541 56.158 13.8633 54.6306 13.8633C53.1033 13.8633 51.6385 14.4541 50.5585 15.5057C49.4785 16.5572 48.8717 17.9835 48.8717 19.4706C48.8361 20.2156 48.96 20.9597 49.2356 21.6555C49.5111 22.3514 49.9324 22.9838 50.4725 23.5126C51.0126 24.0414 51.6598 24.455 52.3729 24.7271C53.0861 24.9993 53.8496 25.124 54.6149 25.0933ZM54.6149 22.5969C52.8399 22.5969 51.8459 21.1528 51.8459 19.4706C51.8459 17.7884 52.8399 16.3981 54.6149 16.3981C56.3899 16.3981 57.4154 17.8422 57.4154 19.4706C57.4154 21.0991 56.3977 22.5969 54.6149 22.5969ZM65.3674 24.8475V17.6348C65.6519 17.2541 66.0242 16.9437 66.4545 16.7289C66.8848 16.5141 67.361 16.4008 67.8445 16.3981C69.0594 16.3981 69.8483 16.9128 69.8483 18.3953V24.8475H72.712V17.2815C72.712 15.1998 71.5602 13.8633 69.1777 13.8633C68.4563 13.8542 67.7415 13.9987 67.0833 14.2866C66.4252 14.5745 65.8396 14.9989 65.3674 15.5301V14.1322H62.5037V24.8475H65.3674ZM76.972 12.9953C77.1978 12.9943 77.4212 12.95 77.6295 12.8649C77.8378 12.7798 78.0268 12.6556 78.1857 12.4994C78.3447 12.3432 78.4705 12.1581 78.556 11.9545C78.6414 11.751 78.6849 11.533 78.6838 11.3131C78.6838 10.871 78.5035 10.4471 78.1824 10.1345C77.8614 9.82189 77.426 9.64628 76.972 9.64628C76.5179 9.64628 76.0825 9.82189 75.7615 10.1345C75.4404 10.4471 75.2601 10.871 75.2601 11.3131C75.2662 11.7533 75.4485 12.1738 75.7682 12.4852C76.088 12.7965 76.5198 12.974 76.972 12.98V12.9953ZM78.4156 24.8475V14.1322H75.552V24.8475H78.4156ZM86.3045 25.1087C87.1314 25.1555 87.9573 25.0025 88.7087 24.6635C89.4602 24.3244 90.114 23.8098 90.6119 23.1653L88.7343 21.4601C88.4791 21.8218 88.1358 22.1162 87.7353 22.3173C87.3347 22.5183 86.8892 22.6197 86.4386 22.6123C86.0278 22.6131 85.6213 22.5301 85.2454 22.3687C84.8694 22.2072 84.5324 21.9709 84.2559 21.675C83.9795 21.379 83.7698 21.03 83.6403 20.6503C83.5107 20.2707 83.4643 19.8688 83.504 19.4706C83.4722 19.0762 83.5251 18.6795 83.6594 18.3061C83.7937 17.9326 84.0064 17.5905 84.2839 17.3014C84.5615 17.0124 84.8978 16.7828 85.2715 16.6273C85.6452 16.4718 86.048 16.3937 86.4544 16.3981C86.9067 16.3807 87.3559 16.4776 87.7582 16.6796C88.1606 16.8815 88.5023 17.1815 88.7501 17.5503L90.6276 15.822C90.1261 15.1824 89.4713 14.6722 88.7204 14.3361C87.9695 14 87.1454 13.8482 86.3203 13.894C85.5572 13.8606 84.7953 13.9816 84.0827 14.2495C83.3701 14.5174 82.7223 14.9263 82.1803 15.4504C81.6384 15.9745 81.2139 16.6024 80.9339 17.2944C80.6539 17.9864 80.5244 18.7274 80.5535 19.4706C80.5176 20.2176 80.6421 20.9637 80.9191 21.6612C81.1961 22.3587 81.6195 22.9923 82.1622 23.5214C82.7049 24.0506 83.355 24.4637 84.071 24.7343C84.787 25.005 85.5531 25.1273 86.3203 25.0933L86.3045 25.1087Z" fill="white"/>
<path d="M18.5705 25.0933C21.3159 25.0933 23.3906 23.0578 23.3906 19.4937C23.3906 15.9296 21.3395 13.8633 18.5705 13.8633C17.9215 13.8669 17.2823 14.0172 16.7032 14.3025C16.1241 14.5878 15.621 15.0001 15.2335 15.5071V10.0611H12.3462V24.8475H15.2335V23.4572C15.623 23.9615 16.1268 24.3714 16.7056 24.6552C17.2843 24.939 17.9225 25.0889 18.5705 25.0933ZM17.6633 22.5969C17.1921 22.5866 16.7293 22.4735 16.3088 22.2662C15.8883 22.0588 15.5209 21.7624 15.2335 21.3986V17.6118C15.5193 17.2452 15.886 16.9458 16.3066 16.7358C16.7272 16.5257 17.1908 16.4103 17.6633 16.3981C19.3357 16.3981 20.4402 17.6348 20.4402 19.4706C20.4402 21.3065 19.3357 22.5969 17.6633 22.5969ZM30.6642 25.0933C32.2955 25.1449 33.8905 24.6181 35.153 23.6109L33.8907 21.775C33.0857 22.445 32.0698 22.8271 31.0113 22.8581C30.2589 22.9176 29.5117 22.6933 28.9244 22.2315C28.3371 21.7697 27.9545 21.1058 27.8557 20.377H35.9419V19.7625C35.9419 16.2599 33.733 13.8633 30.4827 13.8633C29.7298 13.8546 28.9829 13.9946 28.2872 14.2749C27.5914 14.5551 26.9612 14.9699 26.4347 15.494C25.9082 16.0181 25.4964 16.6408 25.224 17.3242C24.9516 18.0077 24.8244 18.7379 24.8501 19.4706C24.8137 20.2217 24.9394 20.9719 25.2192 21.6727C25.4991 22.3735 25.9268 23.0094 26.4747 23.5392C27.0226 24.0691 27.6785 24.4812 28.4002 24.7489C29.1218 25.0166 29.8931 25.1339 30.6642 25.0933ZM33.165 18.4721H27.8084C27.8569 17.8188 28.1616 17.2087 28.6595 16.7682C29.1574 16.3278 29.8102 16.0907 30.4827 16.1062C30.8192 16.0866 31.1563 16.1325 31.4743 16.2414C31.7924 16.3502 32.0848 16.5198 32.3347 16.7401C32.5845 16.9605 32.7866 17.2272 32.9292 17.5246C33.0718 17.822 33.1519 18.1441 33.165 18.4721ZM39.0501 29.1721C40.9197 29.126 42.3634 28.596 43.1681 26.5835L48.288 14.1322H45.2113L42.3713 21.5753L39.5313 14.1322H36.4546L40.8724 24.9858L40.478 25.8922C40.3413 26.1597 40.1211 26.3781 39.8489 26.5161C39.5768 26.6541 39.2667 26.7046 38.9633 26.6603C38.6546 26.6591 38.349 26.5991 38.064 26.4837L37.638 29.0108C38.1029 29.1045 38.5754 29.1585 39.0501 29.1721ZM54.6149 25.0933C55.3827 25.1284 56.1497 25.0069 56.8666 24.7368C57.5835 24.4666 58.2346 24.0537 58.7781 23.5244C59.3217 22.9951 59.7458 22.3612 60.0233 21.6631C60.3008 20.9651 60.4255 20.2183 60.3895 19.4706C60.3895 17.9835 59.7828 16.5572 58.7028 15.5057C57.6228 14.4541 56.158 13.8633 54.6306 13.8633C53.1033 13.8633 51.6385 14.4541 50.5585 15.5057C49.4785 16.5572 48.8717 17.9835 48.8717 19.4706C48.8361 20.2156 48.96 20.9597 49.2356 21.6555C49.5111 22.3514 49.9324 22.9838 50.4725 23.5126C51.0126 24.0414 51.6598 24.455 52.3729 24.7271C53.0861 24.9993 53.8496 25.124 54.6149 25.0933ZM54.6149 22.5969C52.8399 22.5969 51.8459 21.1528 51.8459 19.4706C51.8459 17.7884 52.8399 16.3981 54.6149 16.3981C56.3899 16.3981 57.4154 17.8422 57.4154 19.4706C57.4154 21.0991 56.3977 22.5969 54.6149 22.5969ZM65.3674 24.8475V17.6348C65.6519 17.2541 66.0242 16.9437 66.4545 16.7289C66.8848 16.5141 67.361 16.4008 67.8445 16.3981C69.0594 16.3981 69.8483 16.9128 69.8483 18.3953V24.8475H72.712V17.2815C72.712 15.1998 71.5602 13.8633 69.1777 13.8633C68.4563 13.8542 67.7415 13.9987 67.0833 14.2866C66.4252 14.5745 65.8396 14.9989 65.3674 15.5301V14.1322H62.5037V24.8475H65.3674ZM76.972 12.9953C77.1978 12.9943 77.4212 12.95 77.6295 12.8649C77.8378 12.7798 78.0268 12.6556 78.1857 12.4994C78.3447 12.3432 78.4705 12.1581 78.556 11.9545C78.6414 11.751 78.6849 11.533 78.6838 11.3131C78.6838 10.871 78.5035 10.4471 78.1824 10.1345C77.8614 9.82189 77.426 9.64628 76.972 9.64628C76.5179 9.64628 76.0825 9.82189 75.7615 10.1345C75.4404 10.4471 75.2601 10.871 75.2601 11.3131C75.2662 11.7533 75.4485 12.1738 75.7682 12.4852C76.088 12.7965 76.5198 12.974 76.972 12.98V12.9953ZM78.4156 24.8475V14.1322H75.552V24.8475H78.4156ZM86.3045 25.1087C87.1314 25.1555 87.9573 25.0025 88.7087 24.6635C89.4602 24.3244 90.114 23.8098 90.6119 23.1653L88.7343 21.4601C88.4791 21.8218 88.1358 22.1162 87.7353 22.3173C87.3347 22.5183 86.8892 22.6197 86.4386 22.6123C86.0278 22.6131 85.6213 22.5301 85.2454 22.3687C84.8694 22.2072 84.5324 21.9709 84.2559 21.675C83.9795 21.379 83.7698 21.03 83.6403 20.6503C83.5107 20.2707 83.4643 19.8688 83.504 19.4706C83.4722 19.0762 83.5251 18.6795 83.6594 18.3061C83.7937 17.9326 84.0064 17.5905 84.2839 17.3014C84.5615 17.0124 84.8978 16.7828 85.2715 16.6273C85.6452 16.4718 86.048 16.3937 86.4544 16.3981C86.9067 16.3807 87.3559 16.4776 87.7582 16.6796C88.1606 16.8815 88.5023 17.1815 88.7501 17.5503L90.6276 15.822C90.1261 15.1824 89.4713 14.6722 88.7204 14.3361C87.9695 14 87.1454 13.8482 86.3203 13.894C85.5572 13.8606 84.7953 13.9816 84.0827 14.2495C83.3701 14.5174 82.7223 14.9263 82.1803 15.4504C81.6384 15.9745 81.2139 16.6024 80.9339 17.2944C80.6539 17.9864 80.5244 18.7274 80.5535 19.4706C80.5176 20.2176 80.6421 20.9637 80.9191 21.6612C81.1961 22.3587 81.6195 22.9923 82.1622 23.5214C82.7049 24.0506 83.355 24.4637 84.071 24.7343C84.787 25.005 85.5531 25.1273 86.3203 25.0933L86.3045 25.1087Z" fill="white"/>
</g>
<defs>
<clipPath id="clip0_3_11927">
<rect width="90.6275" height="27.86" fill="white" transform="translate(0 5.42924)"/>
</clipPath>
</defs>
</svg>
