<svg width="16" height="17" viewBox="0 0 16 17" fill="none" xmlns="http://www.w3.org/2000/svg">
<path d="M1.88235 1.44118C1.36256 1.44118 0.941176 1.86256 0.941176 2.38235V14.6176C0.941176 15.1374 1.36256 15.5588 1.88235 15.5588H14.1176C14.6374 15.5588 15.0588 15.1374 15.0588 14.6176V2.38235C15.0588 1.86256 14.6374 1.44118 14.1176 1.44118H1.88235ZM1.88235 0.5H14.1176C15.1572 0.5 16 1.34276 16 2.38235V14.6176C16 15.6572 15.1572 16.5 14.1176 16.5H1.88235C0.842758 16.5 0 15.6572 0 14.6176V2.38235C0 1.34276 0.842758 0.5 1.88235 0.5Z" fill="#25262A"/>
</svg>
